<!-- icon666.com - MILLIONS vector ICONS FREE --><svg xmlns="http://www.w3.org/2000/svg" xmlns:xlink="http://www.w3.org/1999/xlink" version="1.1" id="Layer_1" x="0px" y="0px" viewBox="0 0 64 64" style="enable-background:new 0 0 64 64;" xml:space="preserve"><g><polygon points="8.8,49 25.2,49 25.5,47 8.5,47 "></polygon><path d="M17,23h-6c-0.6,0-1,0.4-1,1s0.4,1,1,1h6c0.6,0,1-0.4,1-1S17.6,23,17,23z"></path><rect x="10" y="31" width="2" height="2"></rect><path d="M12,54.8V61h10v-6.2c0-1.4,0.4-2.7,1-3.8H11C11.6,52.2,12,53.5,12,54.8z"></path><path d="M22,9.2V3H12v6.2c0,1.4-0.4,2.7-1,3.8h12C22.4,11.8,22,10.5,22,9.2z"></path><polygon points="25.2,15 8.8,15 8.5,17 25.5,17 "></polygon><rect x="10" y="39" width="2" height="2"></rect><path d="M53,31h-4c-0.3,0-0.5-0.1-0.7-0.3L43.6,26H37c-0.6,0-1,0.4-1,1s0.4,1,1,1h4c0.4,0,0.8,0.2,0.9,0.6c0.2,0.4,0.1,0.8-0.2,1.1 l-5,5C36.5,34.9,36.3,35,36,35h-5c-0.6,0-1,0.4-1,1s0.4,1,1,1h5.6l2.7-2.7c0.2-0.2,0.5-0.3,0.7-0.3s0.5,0.1,0.7,0.3l2,2 c0.4,0.4,0.4,1,0,1.4L39.4,41C39.1,41.3,39,41.6,39,42c0,0.6,0.5,1,1,1c0.3,0,0.6-0.1,0.8-0.4l3.8-4.5c0.2-0.3,0.4-0.6,0.4-1 c0-0.4-0.2-0.8-0.5-1.1l-1.2-1.2c-0.4-0.4-0.4-1,0-1.4l2-2c0.4-0.4,1-0.4,1.4,0l1.7,1.7H53c0.6,0,1-0.4,1-1S53.6,31,53,31z"></path><path d="M42,16c-8.8,0-16,7.2-16,16s7.2,16,16,16s16-7.2,16-16S50.8,16,42,16z M53,35h-5c-0.3,0-0.5-0.1-0.7-0.3L46,33.4L45.4,34 l0.5,0.5c0.7,0.7,1,1.6,1,2.5c0,0.8-0.3,1.6-0.8,2.3l-3.8,4.5C41.8,44.6,40.9,45,40,45c-1.7,0-3-1.4-3-3c0-0.9,0.3-1.7,1-2.3 l2.6-2.6L40,36.4l-2.3,2.3C37.5,38.9,37.3,39,37,39h-6c-1.7,0-3-1.3-3-3s1.3-3,3-3h4.6l3-3H37c-1.7,0-3-1.3-3-3s1.3-3,3-3h7 c0.3,0,0.5,0.1,0.7,0.3l0.3,0.3c0.2-2,1.9-3.6,4-3.6c2.2,0,4,1.8,4,4c0,2.1-1.6,3.8-3.6,4l0,0H53c1.7,0,3,1.3,3,3S54.7,35,53,35z"></path><path d="M28,20.7c-0.1-1-1-1.7-2-1.7H8c-1.1,0-2,0.9-2,2v22c0,1.1,0.9,2,2,2h18c1,0,1.8-0.8,2-1.7c-2.5-3.1-4-7-4-11.3 C24,27.7,25.5,23.8,28,20.7z M14,42c0,0.6-0.4,1-1,1H9c-0.6,0-1-0.4-1-1v-4c0-0.6,0.4-1,1-1h4c0.6,0,1,0.4,1,1V42z M14,34 c0,0.6-0.4,1-1,1H9c-0.6,0-1-0.4-1-1v-4c0-0.6,0.4-1,1-1h4c0.6,0,1,0.4,1,1V34z M17,27h-6c-1.7,0-3-1.3-3-3s1.3-3,3-3h6 c1.7,0,3,1.3,3,3S18.7,27,17,27z"></path><circle cx="49" cy="25" r="2"></circle></g></svg>